<?xml version="1.0" standalone="no"?>
<!DOCTYPE svg PUBLIC "-//W3C//DTD SVG 20010904//EN"
 "http://www.w3.org/TR/2001/REC-SVG-20010904/DTD/svg10.dtd">
<svg version="1.0" xmlns="http://www.w3.org/2000/svg"
 width="1024.000000pt" height="1024.000000pt" viewBox="0 0 1024.000000 1024.000000"
 preserveAspectRatio="xMidYMid meet">

<g transform="translate(0.000000,1024.000000) scale(0.100000,-0.100000)"
fill="#000000" stroke="none">
<path d="M4870 9275 c-563 -83 -1054 -514 -1195 -1049 -42 -157 -46 -213 -46
-614 0 -502 19 -677 105 -953 77 -246 130 -346 268 -500 46 -52 96 -110 111
-131 15 -20 33 -42 40 -50 7 -7 46 -53 87 -103 41 -49 154 -179 250 -289 96
-109 202 -231 235 -270 33 -40 79 -92 102 -117 23 -24 55 -62 73 -84 17 -22
38 -46 47 -52 14 -11 -24 -13 -198 -13 l-214 0 -150 207 c-82 113 -172 236
-200 273 -231 310 -349 462 -361 467 -50 19 -561 -263 -610 -337 -37 -56 -97
-202 -160 -392 l-58 -177 -51 -12 c-145 -34 -443 -155 -598 -241 -127 -72
-470 -331 -518 -392 -72 -92 -268 -587 -294 -741 -3 -22 -29 -103 -57 -180
-80 -222 -102 -331 -102 -510 0 -395 121 -725 338 -922 71 -65 197 -128 296
-149 88 -18 182 -8 289 32 35 13 67 24 71 24 5 0 10 -98 12 -218 3 -207 4
-219 27 -267 32 -63 93 -124 156 -156 l50 -24 574 -3 573 -4 -26 -27 c-22 -23
-116 -177 -116 -191 0 -3 675 -5 1499 -5 1329 0 1498 2 1491 15 -5 8 -33 57
-64 109 -31 52 -54 96 -52 99 3 2 250 5 549 5 l544 2 68 35 c82 42 118 84 150
176 23 64 25 83 25 258 0 175 1 188 18 180 9 -4 58 -18 107 -31 69 -19 104
-23 150 -19 89 9 199 42 292 87 68 34 97 56 165 128 70 73 93 106 140 202 83
166 122 317 153 588 41 355 15 498 -150 816 -40 77 -97 199 -125 270 -75 188
-162 363 -205 413 -118 136 -587 459 -792 546 -89 37 -235 73 -333 81 l-85 7
-22 62 c-152 425 -202 548 -231 578 -38 38 -480 278 -512 278 -12 0 -63 -55
-128 -139 -26 -33 -128 -162 -228 -288 -99 -125 -224 -286 -278 -358 -53 -71
-107 -136 -119 -142 -15 -9 -81 -13 -217 -13 -193 0 -195 0 -167 19 16 10 56
49 89 87 33 38 87 99 120 136 32 37 120 138 194 225 75 87 164 189 197 227 34
39 71 81 82 95 11 14 80 97 155 184 198 232 199 233 251 342 83 172 135 361
181 650 17 107 21 181 23 422 1 161 4 296 7 299 4 3 61 -4 128 -15 304 -52
463 -149 554 -341 l31 -65 0 -217 0 -217 75 -78 c90 -95 121 -116 171 -116 55
0 83 23 120 100 18 38 62 120 96 184 90 165 105 214 105 329 0 158 -53 277
-187 419 -121 128 -279 232 -435 287 -89 31 -270 68 -416 86 l-109 13 102 5
c109 5 134 16 177 74 17 22 21 42 21 109 0 70 -3 87 -23 115 -46 64 -59 67
-339 67 l-251 0 -32 65 c-41 82 -148 225 -238 317 -157 161 -416 318 -624 377
-186 53 -427 69 -618 41z m960 -1546 c217 -1 377 -5 355 -9 -439 -81 -733
-104 -1228 -97 -378 5 -512 16 -782 68 -61 11 -129 23 -153 26 -23 3 -44 8
-46 12 -4 5 817 6 1854 0z m-1644 -364 c72 -13 223 -37 335 -52 191 -26 227
-27 554 -27 302 0 374 3 525 22 248 32 358 49 494 77 65 14 125 25 133 25 11
0 13 -19 11 -96 l-3 -97 -80 -24 c-659 -197 -1116 -232 -1635 -127 -124 25
-379 91 -480 123 l-95 30 3 99 3 99 52 -14 c29 -7 111 -24 183 -38z m3191
-2631 c70 -23 105 -54 144 -126 l34 -63 3 -1396 2 -1396 -22 -33 c-13 -18 -36
-43 -51 -54 l-28 -21 -2317 -3 c-1555 -2 -2329 0 -2352 7 -48 14 -91 61 -99
108 -3 21 -4 659 -1 1418 l5 1380 23 45 c39 75 90 119 162 141 14 4 1020 8
2237 8 2004 1 2217 -1 2260 -15z m-5319 -1130 c186 -93 332 -503 332 -939 0
-174 -35 -289 -112 -362 -44 -42 -76 -53 -155 -53 -85 0 -137 24 -212 99 -105
105 -163 238 -202 466 -28 164 -30 372 -5 490 34 158 115 276 213 310 55 20
83 18 141 -11z m6279 7 c64 -29 141 -148 176 -271 39 -137 47 -405 17 -550
-53 -250 -157 -432 -290 -504 -105 -57 -234 -44 -299 30 -80 91 -105 192 -98
404 4 132 10 179 42 320 71 315 164 490 294 557 72 38 99 40 158 14z"/>
<path d="M3340 4070 c0 -74 3 -159 6 -187 l7 -53 198 0 199 0 0 190 0 189
-205 -2 -205 -1 0 -136z"/>
<path d="M4010 4018 l0 -188 1501 0 c1374 0 1504 1 1536 16 55 26 65 52 70
167 4 112 -3 136 -50 171 l-28 21 -1515 0 -1514 0 0 -187z"/>
<path d="M3350 3518 c-52 -27 -77 -66 -86 -131 -14 -97 40 -193 121 -216 29
-8 549 -11 1820 -11 l1781 0 44 23 c70 36 85 64 84 160 -2 114 -28 160 -103
186 -25 8 -509 11 -1825 11 l-1792 0 -44 -22z"/>
<path d="M5450 2565 l0 -310 205 0 205 0 -2 305 -3 305 -203 5 -202 5 0 -310z"/>
<path d="M3350 2563 l0 -308 195 -1 195 0 0 308 0 308 -195 0 -195 0 0 -307z"/>
<path d="M4000 2563 l1 -308 595 0 594 0 -2 305 -3 305 -169 3 c-129 2 -171
-1 -178 -10 -4 -7 -8 -73 -8 -145 l0 -133 -224 0 -223 0 -7 77 c-3 42 -6 107
-6 145 l0 68 -185 0 -186 0 1 -307z"/>
<path d="M6170 2563 l0 -308 463 0 c296 0 465 4 469 10 4 6 8 141 8 301 0 257
-2 293 -16 298 -9 3 -80 6 -159 6 l-143 0 -6 -45 c-4 -25 -7 -82 -6 -128 1
-45 1 -90 1 -99 -1 -16 -14 -18 -131 -18 l-129 0 -3 143 -3 142 -172 3 -173 2
0 -307z"/>
<path d="M1013 6323 c-27 -5 -85 -64 -95 -96 -21 -75 3 -179 53 -223 51 -44
59 -45 599 -42 l515 3 33 23 c52 38 75 93 70 173 -4 76 -21 108 -78 147 l-33
22 -521 -1 c-287 -1 -531 -4 -543 -6z"/>
<path d="M2503 6315 c-54 -23 -68 -57 -68 -161 0 -100 10 -124 69 -168 25 -19
44 -21 212 -24 170 -3 189 -2 227 17 23 11 53 37 67 58 21 31 25 48 25 112 0
89 -24 139 -79 165 -46 22 -404 23 -453 1z"/>
<path d="M6809 6307 c-45 -30 -69 -80 -69 -145 0 -124 76 -203 196 -203 66 0
119 27 154 78 21 31 25 48 25 112 0 62 -4 83 -23 114 -34 54 -66 67 -165 67
-71 0 -89 -4 -118 -23z"/>
<path d="M7409 6307 c-96 -64 -92 -238 9 -315 l35 -27 811 -3 811 -2 45 22
c63 32 105 102 104 172 -1 62 -20 102 -69 145 l-36 31 -838 0 -838 0 -34 -23z"/>
<path d="M27 103 c-25 -4 -27 -8 -27 -54 0 -48 1 -49 30 -49 30 0 30 1 30 55
0 30 -1 54 -2 54 -2 -1 -15 -4 -31 -6z"/>
</g>
</svg>
